HIERARCHY
ROOT mixamorig:Hips
{
	OFFSET 0.00 0.00 0.00
	CHANNELS 6 Xposition Yposition Zposition Zrotation Yrotation Xrotation
	JOINT mixamorig:Spine
	{
		OFFSET	0.0000	9.9235	-1.2273
		CHANNELS 3 Zrotation Yrotation Xrotation
		JOINT mixamorig:Spine1
		{
			OFFSET	-0.0001	11.6454	-1.4223
			CHANNELS 3 Zrotation Yrotation Xrotation
			JOINT mixamorig:Spine2
			{
				OFFSET	0.0001	13.3602	-1.6265
				CHANNELS 3 Zrotation Yrotation Xrotation
				JOINT mixamorig:Neck
				{
					OFFSET	0.0000	15.0325	0.7929
					CHANNELS 3 Zrotation Yrotation Xrotation
					JOINT mixamorig:Head
					{
						OFFSET	0.0000	10.3218	3.1424
						CHANNELS 3 Zrotation Yrotation Xrotation
						JOINT mixamorig:HeadTop_End
						{
							OFFSET	0.0002	18.4747	6.6364
							CHANNELS 3 Zrotation Yrotation Xrotation
							End Site
							{
								OFFSET 0.0000 0.0000 0.0000
							}
						}
						JOINT mixamorig:LeftEye
						{
							OFFSET	2.9479	7.6817	9.1207
							CHANNELS 3 Zrotation Yrotation Xrotation
							End Site
							{
								OFFSET 0.0000 0.0000 0.0000
							}
						}
						JOINT mixamorig:RightEye
						{
							OFFSET	-2.9445	7.6817	9.1205
							CHANNELS 3 Zrotation Yrotation Xrotation
							End Site
							{
								OFFSET 0.0000 0.0000 0.0000
							}
						}
					}
				}
				JOINT mixamorig:LeftShoulder
				{
					OFFSET	6.1058	9.1104	0.7056
					CHANNELS 3 Zrotation Yrotation Xrotation
					JOINT mixamorig:LeftArm
					{
						OFFSET	12.6532	-0.3431	-2.6009
						CHANNELS 3 Zrotation Yrotation Xrotation
						JOINT mixamorig:LeftForeArm
						{
							OFFSET	27.3517	-0.9645	-1.4034
							CHANNELS 3 Zrotation Yrotation Xrotation
							JOINT mixamorig:LeftHand
							{
								OFFSET	27.5619	-0.7072	1.5501
								CHANNELS 3 Zrotation Yrotation Xrotation
								JOINT mixamorig:LeftHandMiddle1
								{
									OFFSET	12.6631	-1.3962	0.9548
									CHANNELS 3 Zrotation Yrotation Xrotation
									JOINT mixamorig:LeftHandMiddle2
									{
										OFFSET	3.6093	-0.1669	0.0778
										CHANNELS 3 Zrotation Yrotation Xrotation
										JOINT mixamorig:LeftHandMiddle3
										{
											OFFSET	3.4005	-0.6274	0.1147
											CHANNELS 3 Zrotation Yrotation Xrotation
											End Site
											{
												OFFSET 3.6205 -0.6493 0.1199
											}
										}
									}
								}
								JOINT mixamorig:LeftHandThumb1
								{
									OFFSET	3.3268	-2.0475	3.5790
									CHANNELS 3 Zrotation Yrotation Xrotation
									JOINT mixamorig:LeftHandThumb2
									{
										OFFSET	3.4890	-1.4806	2.8548
										CHANNELS 3 Zrotation Yrotation Xrotation
										JOINT mixamorig:LeftHandThumb3
										{
											OFFSET	3.4086	-1.7658	2.1133
											CHANNELS 3 Zrotation Yrotation Xrotation
											End Site
											{
												OFFSET 2.7231 -1.1597 1.7902
											}
										}
									}
								}
								JOINT mixamorig:LeftHandIndex1
								{
									OFFSET	11.9722	-1.1061	3.7324
									CHANNELS 3 Zrotation Yrotation Xrotation
									JOINT mixamorig:LeftHandIndex2
									{
										OFFSET	3.8388	-0.6406	-0.0310
										CHANNELS 3 Zrotation Yrotation Xrotation
										JOINT mixamorig:LeftHandIndex3
										{
											OFFSET	3.3346	-0.7374	-0.0133
											CHANNELS 3 Zrotation Yrotation Xrotation
											End Site
											{
												OFFSET 2.9714 -0.8030 0.0009
											}
										}
									}
								}
								JOINT mixamorig:LeftHandRing1
								{
									OFFSET	12.1659	-1.6805	-1.2769
									CHANNELS 3 Zrotation Yrotation Xrotation
									JOINT mixamorig:LeftHandRing2
									{
										OFFSET	3.5926	-0.2366	-0.0771
										CHANNELS 3 Zrotation Yrotation Xrotation
										JOINT mixamorig:LeftHandRing3
										{
											OFFSET	3.2906	-0.3266	-0.0615
											CHANNELS 3 Zrotation Yrotation Xrotation
											End Site
											{
												OFFSET 3.5423 -0.9211 -0.0200
											}
										}
									}
								}
								JOINT mixamorig:LeftHandPinky1
								{
									OFFSET	11.0508	-2.1872	-3.8040
									CHANNELS 3 Zrotation Yrotation Xrotation
									JOINT mixamorig:LeftHandPinky2
									{
										OFFSET	4.1236	-0.3047	0.1212
										CHANNELS 3 Zrotation Yrotation Xrotation
										JOINT mixamorig:LeftHandPinky3
										{
											OFFSET	2.5805	-0.2597	0.0823
											CHANNELS 3 Zrotation Yrotation Xrotation
											End Site
											{
												OFFSET 2.9027 -0.3379 0.0963
											}
										}
									}
								}
							}
						}
					}
				}
				JOINT mixamorig:RightShoulder
				{
					OFFSET	-6.1057	9.1105	0.7056
					CHANNELS 3 Zrotation Yrotation Xrotation
					JOINT mixamorig:RightArm
					{
						OFFSET	-12.6532	-0.3429	-2.6009
						CHANNELS 3 Zrotation Yrotation Xrotation
						JOINT mixamorig:RightForeArm
						{
							OFFSET	-27.3517	-0.9641	-1.4034
							CHANNELS 3 Zrotation Yrotation Xrotation
							JOINT mixamorig:RightHand
							{
								OFFSET	-27.5619	-0.7068	1.5501
								CHANNELS 3 Zrotation Yrotation Xrotation
								JOINT mixamorig:RightHandMiddle1
								{
									OFFSET	-12.6631	-1.3960	0.9549
									CHANNELS 3 Zrotation Yrotation Xrotation
									JOINT mixamorig:RightHandMiddle2
									{
										OFFSET	-3.6093	-0.1669	0.0778
										CHANNELS 3 Zrotation Yrotation Xrotation
										JOINT mixamorig:RightHandMiddle3
										{
											OFFSET	-3.4005	-0.6273	0.1148
											CHANNELS 3 Zrotation Yrotation Xrotation
											End Site
											{
												OFFSET -3.6205 -0.6492 0.1199
											}
										}
									}
								}
								JOINT mixamorig:RightHandThumb1
								{
									OFFSET	-3.3269	-2.0474	3.5791
									CHANNELS 3 Zrotation Yrotation Xrotation
									JOINT mixamorig:RightHandThumb2
									{
										OFFSET	-3.4890	-1.4805	2.8548
										CHANNELS 3 Zrotation Yrotation Xrotation
										JOINT mixamorig:RightHandThumb3
										{
											OFFSET	-3.4086	-1.7658	2.1133
											CHANNELS 3 Zrotation Yrotation Xrotation
											End Site
											{
												OFFSET -2.7231 -1.1596 1.7902
											}
										}
									}
								}
								JOINT mixamorig:RightHandIndex1
								{
									OFFSET	-11.9722	-1.1059	3.7325
									CHANNELS 3 Zrotation Yrotation Xrotation
									JOINT mixamorig:RightHandIndex2
									{
										OFFSET	-3.8388	-0.6406	-0.0310
										CHANNELS 3 Zrotation Yrotation Xrotation
										JOINT mixamorig:RightHandIndex3
										{
											OFFSET	-3.3346	-0.7373	-0.0133
											CHANNELS 3 Zrotation Yrotation Xrotation
											End Site
											{
												OFFSET -2.9714 -0.8029 0.0009
											}
										}
									}
								}
								JOINT mixamorig:RightHandRing1
								{
									OFFSET	-12.1659	-1.6803	-1.2769
									CHANNELS 3 Zrotation Yrotation Xrotation
									JOINT mixamorig:RightHandRing2
									{
										OFFSET	-3.5926	-0.2366	-0.0771
										CHANNELS 3 Zrotation Yrotation Xrotation
										JOINT mixamorig:RightHandRing3
										{
											OFFSET	-3.2906	-0.3265	-0.0615
											CHANNELS 3 Zrotation Yrotation Xrotation
											End Site
											{
												OFFSET -3.5423 -0.9210 -0.0200
											}
										}
									}
								}
								JOINT mixamorig:RightHandPinky1
								{
									OFFSET	-11.0508	-2.1870	-3.8040
									CHANNELS 3 Zrotation Yrotation Xrotation
									JOINT mixamorig:RightHandPinky2
									{
										OFFSET	-4.1236	-0.3046	0.1212
										CHANNELS 3 Zrotation Yrotation Xrotation
										JOINT mixamorig:RightHandPinky3
										{
											OFFSET	-2.5805	-0.2597	0.0823
											CHANNELS 3 Zrotation Yrotation Xrotation
											End Site
											{
												OFFSET -2.9027 -0.3379 0.0963
											}
										}
									}
								}
							}
						}
					}
				}
			}
		}
	}
	JOINT mixamorig:RightUpLeg
	{
		OFFSET	-9.1245	-6.6564	-0.0554
		CHANNELS 3 Zrotation Yrotation Xrotation
		JOINT mixamorig:RightLeg
		{
			OFFSET	-0.0000	-40.5610	-1.7663
			CHANNELS 3 Zrotation Yrotation Xrotation
			JOINT mixamorig:RightFoot
			{
				OFFSET	0.4978	-41.9625	-3.3512
				CHANNELS 3 Zrotation Yrotation Xrotation
				JOINT mixamorig:RightToeBase
				{
					OFFSET	-0.3734	-10.4922	12.6407
					CHANNELS 3 Zrotation Yrotation Xrotation
					End Site
					{
						OFFSET 0.0000 -0.0000 9.9925
					}
				}
			}
		}
	}
	JOINT mixamorig:LeftUpLeg
	{
		OFFSET	9.1245	-6.6564	-0.0554
		CHANNELS 3 Zrotation Yrotation Xrotation
		JOINT mixamorig:LeftLeg
		{
			OFFSET	0.0000	-40.5610	-1.7663
			CHANNELS 3 Zrotation Yrotation Xrotation
			JOINT mixamorig:LeftFoot
			{
				OFFSET	-0.4978	-41.9625	-3.3512
				CHANNELS 3 Zrotation Yrotation Xrotation
				JOINT mixamorig:LeftToeBase
				{
					OFFSET	0.3734	-10.4922	12.6407
					CHANNELS 3 Zrotation Yrotation Xrotation
					End Site
					{
						OFFSET -0.0000 -0.0000 9.9925
					}
				}
			}
		}
	}
}
MOTION
Frames: 5
Frame Time: 0.0333333
0.0312 97.4356 -0.0097 -0.1344 2.3521 -0.7590 0.5087 2.9343 7.3893 -0.4569 0.8185 0.4748 -0.4670 0.8343 0.4675 -0.2598 -1.4641 2.2779 -21.1818 -4.5887 13.9822 0.0000 -0.0000 0.0000 0.0000 -0.0000 0.0000 0.0000 -0.0000 0.0000 -13.5286 -5.5379 1.8419 -63.8851 -4.8866 -1.5202 1.5865 -34.9891 20.9148 -2.9002 23.6900 5.4399 -43.3076 -2.0337 2.1947 -26.7936 -1.2004 0.8556 -36.8906 -1.8100 1.4593 -0.6847 1.7890 16.0968 6.4593 2.1019 13.8945 19.7263 -2.6441 3.4269 -40.9904 -5.4866 1.2202 -28.4914 -1.4419 -0.0852 -28.8340 -1.4353 -0.0359 -44.3524 1.6718 2.7283 -26.7831 -1.5141 -0.3035 -21.7728 -1.0340 -0.2380 -38.9381 10.2343 2.5353 -29.2999 -1.4164 1.1384 -29.9288 -1.4710 1.1950 14.9737 4.7503 1.7998 65.1389 5.8569 47.3833 -23.6402 23.3463 -26.9807 -1.7871 -17.8538 6.5716 49.9537 3.0937 2.9391 24.0967 1.7186 0.8244 34.1960 2.4030 1.4013 4.6873 -5.9243 9.7098 -13.5291 -8.2846 12.5424 -1.2898 -13.1228 -10.0681 44.9140 6.6023 1.8260 33.1009 2.4226 0.0421 33.4433 2.4162 0.0641 50.0115 -0.6549 2.6819 33.0111 2.5912 -0.1247 27.9934 2.1612 -0.1887 42.6795 -9.3030 2.1012 33.4730 2.2769 1.5020 34.1029 2.3296 1.5527 -12.0384 -9.1674 -4.2657 -1.5681 5.1703 7.6733 14.0540 -0.6765 -1.8372 1.4661 -6.4350 -1.0316 11.1932 0.6739 -9.0578 2.0024 0.1438 13.2394 -13.0441 0.5530 -3.0942 0.0000 -0.4193 -0.0001 
0.0345 97.3662 0.0189 -0.0951 2.3734 -0.8603 0.3275 2.9057 7.4690 -0.4320 0.8183 0.4752 -0.4441 0.8387 0.4678 -0.2587 -1.4544 2.2495 -21.0516 -4.6293 14.0343 0.0000 -0.0000 0.0000 0.0000 -0.0000 0.0000 0.0000 -0.0000 0.0000 -13.6424 -5.5755 1.8584 -63.7285 -4.6219 -1.4859 1.6021 -35.4592 20.7754 -2.9454 23.8852 5.4494 -43.3113 -2.0406 2.1946 -26.7789 -1.1997 0.8550 -36.8758 -1.8095 1.4585 -0.6751 1.7656 16.0421 6.4607 2.0635 13.9266 19.7263 -2.6441 3.4269 -40.9613 -5.4859 1.2184 -28.4613 -1.4403 -0.0855 -28.8039 -1.4337 -0.0363 -44.3242 1.6785 2.7270 -26.8024 -1.5153 -0.3034 -21.7922 -1.0352 -0.2381 -38.9298 10.2168 2.5335 -29.2843 -1.4158 1.1376 -29.9132 -1.4704 1.1942 14.8519 4.7733 1.7998 65.3139 5.7344 47.8262 -23.8951 23.1605 -27.5259 -1.7100 -17.8534 6.5631 49.9574 3.1009 2.9390 24.0819 1.7176 0.8236 34.1813 2.4022 1.4004 4.6912 -5.8960 9.6573 -13.5298 -8.2426 12.5699 -1.2898 -13.1228 -10.0681 44.8848 6.6012 1.8238 33.0709 2.4204 0.0414 33.4132 2.4141 0.0634 49.9835 -0.6619 2.6801 33.0304 2.5927 -0.1243 28.0128 2.1627 -0.1884 42.6707 -9.2855 2.0993 33.4574 2.2761 1.5010 34.0874 2.3288 1.5517 -12.0874 -9.0295 -4.6593 -1.5332 5.1603 8.7237 14.0677 -0.6174 -2.3934 1.4452 -6.4232 -1.0166 11.1263 0.2928 -9.2549 2.1400 0.3850 13.8817 -13.1174 0.5161 -3.4366 0.0000 -0.5005 0.0000 
0.0309 97.2514 0.0767 -0.0672 2.4615 -0.8662 -0.0250 2.8548 7.4179 -0.4099 0.8179 0.4580 -0.4227 0.8482 0.4498 -0.2427 -1.4431 2.2138 -20.6788 -4.7511 14.1383 0.0000 -0.0000 0.0000 0.0000 -0.0000 0.0000 0.0000 -0.0000 0.0000 -13.6902 -5.5175 1.8500 -63.5757 -4.2406 -1.3428 1.6341 -36.2018 20.6769 -3.0605 24.3201 5.4683 -43.2683 -2.0171 2.1931 -26.7602 -1.1989 0.8541 -36.8571 -1.8089 1.4575 -0.7122 1.6054 16.0154 6.4624 2.0151 13.9670 19.7263 -2.6441 3.4269 -40.9505 -5.4827 1.2183 -28.5095 -1.4428 -0.0850 -28.8521 -1.4363 -0.0357 -44.3328 1.6947 2.7286 -26.7639 -1.5130 -0.3035 -21.7537 -1.0329 -0.2380 -38.9652 10.1850 2.5333 -29.2283 -1.4136 1.1348 -29.8572 -1.4683 1.1913 14.6003 4.7854 1.7997 65.8107 5.5783 49.7240 -24.5145 22.2158 -29.2209 -1.6501 -17.7073 6.5394 49.9146 3.0764 2.9368 24.0632 1.7164 0.8227 34.1625 2.4011 1.3992 4.7255 -5.7334 9.6437 -13.5306 -8.1896 12.6046 -1.2898 -13.1228 -10.0681 44.8741 6.5979 1.8235 33.1191 2.4238 0.0425 33.4614 2.4175 0.0645 49.9925 -0.6781 2.6818 32.9920 2.5897 -0.1250 27.9743 2.1596 -0.1889 42.7051 -9.2530 2.0997 33.4014 2.2731 1.4974 34.0314 2.3258 1.5481 -12.1017 -8.8995 -5.3423 -1.4938 5.1021 10.2453 14.0839 -0.5210 -3.2087 1.4116 -6.4487 -0.9936 11.1103 0.1890 -9.7505 2.1143 0.2309 14.9123 -13.1372 0.4508 -4.0020 0.0000 -0.6273 -0.0000 
0.1145 97.2415 0.1548 -0.1067 2.6933 -0.9335 -0.3844 2.9025 7.3481 -0.4580 0.8358 0.4605 -0.4710 0.8665 0.4518 -0.1321 -1.4812 2.1749 -20.0795 -5.1066 14.3267 0.0000 -0.0000 0.0000 0.0000 -0.0000 0.0000 0.0000 -0.0000 0.0000 -13.6377 -5.4534 1.8326 -63.5176 -4.3104 -1.0601 1.6510 -36.3693 20.8312 -3.0842 24.6179 5.4907 -43.2453 -2.0026 2.1924 -26.7513 -1.1985 0.8538 -36.8482 -1.8086 1.4570 -0.7581 1.4752 16.0517 6.4623 2.0179 13.9646 19.7144 -2.6462 3.4306 -40.9637 -5.4635 1.2223 -28.4489 -1.4396 -0.0856 -28.7915 -1.4331 -0.0364 -44.3652 1.7015 2.7310 -26.7325 -1.5111 -0.3036 -21.7222 -1.0310 -0.2379 -38.9681 10.1562 2.5314 -29.1770 -1.4116 1.1322 -29.8059 -1.4663 1.1886 14.4781 4.7860 1.7997 66.2291 5.5374 50.0700 -24.2270 21.4219 -29.5330 -1.9602 -17.4519 6.5420 49.8917 3.0613 2.9358 24.0543 1.7158 0.8223 34.1536 2.4006 1.3987 4.7650 -5.6056 9.6906 -13.5306 -8.1927 12.6026 -1.2792 -13.1206 -10.0630 44.8875 6.5788 1.8278 33.0584 2.4195 0.0411 33.4007 2.4132 0.0631 50.0250 -0.6847 2.6848 32.9605 2.5873 -0.1256 27.9429 2.1571 -0.1893 42.7071 -9.2239 2.0978 33.3502 2.2704 1.4942 33.9801 2.3231 1.5448 -12.0077 -9.0269 -5.0483 -1.7607 5.0329 10.0367 14.2517 -0.5241 -3.2017 1.7901 -6.5571 -1.2633 11.1254 -0.1720 -9.8158 2.0201 0.0990 15.1777 -13.0530 0.4160 -4.2354 0.0000 -0.6141 -0.0001 
0.3238 97.3433 0.2330 -0.3011 3.3033 -1.3248 -0.6208 3.1310 7.5161 -0.5737 0.8986 0.5610 -0.5881 0.9303 0.5517 0.1707 -1.6367 2.0710 -19.3444 -5.9721 14.7859 0.0000 -0.0000 0.0000 0.0000 -0.0000 0.0000 0.0000 -0.0000 0.0000 -13.3872 -5.5117 1.8257 -63.6711 -5.2236 -0.4972 1.6354 -35.6841 21.0935 -3.0699 24.4941 5.4841 -43.3039 -1.9984 2.1961 -26.7451 -1.1982 0.8535 -36.8419 -1.8084 1.4567 -0.7597 1.3754 15.9355 6.4608 2.0591 13.9316 19.6603 -2.6569 3.4504 -40.9673 -5.4570 1.2237 -28.5185 -1.4433 -0.0849 -28.8612 -1.4367 -0.0356 -44.3242 1.7235 2.7298 -26.7388 -1.5115 -0.3036 -21.7286 -1.0314 -0.2379 -38.9934 10.1582 2.5331 -29.1260 -1.4096 1.1296 -29.7549 -1.4644 1.1860 14.7953 4.6700 1.8047 66.0811 5.4643 47.4484 -23.0275 21.5395 -27.7626 -2.4735 -17.3743 6.5869 49.9503 3.0575 2.9405 24.0481 1.7154 0.8220 34.1474 2.4003 1.3983 4.7718 -5.4967 9.5825 -13.5299 -8.2382 12.5728 -1.2358 -13.1168 -10.0333 44.8912 6.5723 1.8292 33.1281 2.4245 0.0427 33.4704 2.4181 0.0648 49.9845 -0.7071 2.6830 32.9668 2.5878 -0.1255 27.9492 2.1576 -0.1892 42.7324 -9.2254 2.0999 33.2991 2.2676 1.4909 33.9291 2.3204 1.5415 -11.8323 -9.5108 -3.5165 -2.2965 4.8515 8.3586 14.7568 -0.5454 -2.9722 2.7672 -6.3335 -0.8331 11.1883 -1.5299 -9.3901 2.1657 0.5387 14.9715 -13.0119 0.3889 -4.4223 -0.0026 -0.7701 0.5616 
